<svg enable-background="new 0 0 64 64" height="512" viewBox="0 0 64 64" width="512" xmlns="http://www.w3.org/2000/svg"><g id="Layer_13"><g><path d="m33 18c-1.654 0-3 1.346-3 3s1.346 3 3 3 3-1.346 3-3-1.346-3-3-3zm0 4c-.551 0-1-.449-1-1s.449-1 1-1 1 .449 1 1-.449 1-1 1z"/><path d="m25 18c-1.654 0-3 1.346-3 3s1.346 3 3 3 3-1.346 3-3-1.346-3-3-3zm0 4c-.551 0-1-.449-1-1s.449-1 1-1 1 .449 1 1-.449 1-1 1z"/><path d="m53.464 27.684c.847-1.24.661-2.944-.503-3.953-1.207-1.042-3.199-.889-4.224.298l-3.327 3.771c.386-1.837.59-3.787.59-5.8 0-10.598-8.42-21-17-21-12.229 0-19.354 5.986-19.651 6.241l-.349.299v2.46h1c2.757 0 5 2.243 5 5v1.231c-1.52 2.836-3 6.654-3 10.769 0 3.81 1.527 7.335 4.228 10.029-3.677.149-7.097 2.143-8.998 5.312l-5.083 8.471c-.751 1.25-1.147 2.682-1.147 4.14 0 4.435 3.606 8.043 8.048 8.048h39.75.155c4.437 0 8.047-3.61 8.047-8.048 0-1.458-.396-2.89-1.147-4.141l-5.083-8.471c-1.367-2.279-3.497-3.948-5.981-4.769l1.268-1.437c5.605.687 10.429 4.074 12.967 9.151l1.358 2.715h2.618v-3c0-7.052-3.627-13.577-9.536-17.316zm-3.22-2.34c.345-.399 1.009-.445 1.408-.101.417.362.464.996.108 1.405l-14.121 16.005c-.721-.314-1.508-.458-2.313-.374l-.027.003zm-20.648 23.402c.037.033.065.072.104.104l1.441 1.168-.756.857c-.361-.572-.865-1.042-1.458-1.37zm-3.01 2.254h.414c1.103 0 2 .897 2 2s-.897 2-2 2h-5.531l-1.078-3.774c-.022-.078-.057-.151-.085-.226h.109l1.232-1.232c.99-.99 2.717-.99 3.707 0zm-4.586 6.31c0-.104-.012-.207-.022-.31h3.001l-3.225 3.655c-.345.401-1.007.45-1.41.101-.153-.133-.254-.306-.305-.495 1.172-.498 1.961-1.653 1.961-2.951zm-3.882 3.513c.017.06.036.119.056.177h-.707zm9.593-3.895c1.793-.324 3.16-1.843 3.267-3.702l1.719-1.948 2.583 2.095c-.181.408-.28.849-.28 1.302 0 1.183.645 2.27 1.684 2.837l6.394 3.488h-18.96zm8.642-5.26-5.393-4.372c-.856-.694-.988-1.957-.294-2.813.693-.856 1.956-.99 2.813-.294l.322.261 1.733-.181c.695-.073 1.38.13 1.924.571s.883 1.067.956 1.764l.182 1.739c-.034.046-.079.081-.111.129zm-22.353-24.668c0-7.523 5.702-14.282 5.76-14.35l-1.519-1.301c-.077.089-.676.802-1.471 1.967-.643-2.578-2.696-4.604-5.306-5.162 2.129-1.48 8.343-5.154 17.536-5.154 7.43 0 15 9.589 15 19 0 3.489-.639 6.765-1.844 9.487l-4.864 5.513h-.292c-.381 0-.749-.075-1.093-.21 2.512-2.588 4.093-6.346 4.093-9.79v-4.472-.528c0-6.065-4.935-11-11-11s-11 4.935-11 11v.528 4.472c0 3.445 1.583 7.206 4.097 9.793-.346.136-.717.207-1.097.207h-1.743c-3.338-2.42-5.257-6.038-5.257-10zm19.389 6.843c.952-.318 1.706-1.099 1.96-2.116l.514-2.056c.805-.461 1.499-1.053 2.091-1.727-.293 3.038-1.957 6.277-4.331 8.235zm4.611-11.315c0 2.377-1.321 4.515-3.447 5.578l-.411.206-.733 2.931c-.112.445-.511.757-.971.757h-.438v-4h-2v4h-2v-4h-2v4h-.438c-.46 0-.859-.312-.97-.758l-.733-2.931-.411-.206c-2.127-1.063-3.448-3.2-3.448-5.577v-.528c0-4.962 4.038-9 9-9s9 4.038 9 9zm-15.863 7.144.514 2.056c.254 1.017 1.008 1.798 1.96 2.116l-.234 2.337c-2.374-1.958-4.038-5.197-4.331-8.235.592.673 1.286 1.265 2.091 1.726zm4.468 4.328h4.789l.339 3.385c-.861.391-1.779.615-2.733.615s-1.872-.224-2.733-.615zm-23.605 20.952c0-1.096.298-2.172.862-3.111l5.083-8.471c1.617-2.695 4.574-4.37 7.718-4.37h4.337c.971 0 1.905-.284 2.707-.802 1.56 1.12 3.359 1.802 5.293 1.802 1.935 0 3.733-.682 5.293-1.802.433.28.908.476 1.405.609l-2.664 3.019c-1.417-.292-2.948.197-3.921 1.396-.897 1.106-1.095 2.547-.668 3.805l-1.407 1.595-.269-.269c-.874-.873-2.035-1.353-3.269-1.353s-2.395.48-3.268 1.354l-.646.646h-2.147c-.433 0-.852.089-1.247.265l-3.141 1.396 2.827-5.182-1.756-.958-4.078 7.477-.074.033c-1.804.802-2.97 2.595-2.97 4.569v1.4h2v-1.4c0-1.184.699-2.26 1.782-2.742l6.223-2.766c.569-.253 1.291.082 1.462.684l1.486 5.199c.031.11.047.223.047.335 0 .545-.368 1.026-.894 1.17l-8.459 2.307c-.518.141-1.053.213-1.599.213-3.335 0-6.048-2.713-6.048-6.048zm46.056-11.582 5.083 8.471c.563.939.861 2.015.861 3.111 0 3.335-2.713 6.048-6.048 6.048h-.155c-1.009 0-2.01-.255-2.896-.738l-8.26-4.505c-.395-.216-.641-.631-.641-1.082 0-.244.071-.48.207-.683l2.942-4.413c.397-.597 1.292-.749 1.866-.32l5.784 4.338c.752.566 1.201 1.465 1.201 2.405v1.998h2v-1.998c0-1.566-.748-3.063-2.001-4.003l-1.763-1.323-3.357-6.156-1.756.958 1.257 2.305-.166-.124c-.568-.425-1.272-.659-1.982-.659-.258 0-.511.036-.757.094l-.073-.698c-.101-.968-.503-1.851-1.135-2.566l4.054-4.595c2.392.54 4.464 2.017 5.735 4.135zm11.758 1.022c-2.64-5.279-7.487-8.924-13.19-10.032l4.528-5.132c5.407 3.307 8.765 9.166 8.847 15.533z"/></g></g></svg>